<?xml version="1.0" standalone="no"?>
<!DOCTYPE svg PUBLIC "-//W3C//DTD SVG 20010904//EN"
 "http://www.w3.org/TR/2001/REC-SVG-20010904/DTD/svg10.dtd">
<svg version="1.0" xmlns="http://www.w3.org/2000/svg"
 width="277.000000pt" height="188.000000pt" viewBox="0 0 277.000000 188.000000"
 preserveAspectRatio="xMidYMid meet">
<metadata>
Created by potrace 1.16, written by Peter Selinger 2001-2019
</metadata>
<g transform="translate(0.000000,188.000000) scale(0.100000,-0.100000)"
fill="#000000" stroke="none">
<path d="M2353 1834 c-19 -9 -40 -32 -51 -55 -13 -26 -41 -54 -78 -80 -33 -23
-87 -68 -121 -101 l-61 -61 -40 16 c-22 9 -82 26 -133 39 -81 20 -119 23 -279
23 -198 0 -266 -11 -437 -69 -292 -99 -628 -356 -875 -666 -149 -188 -169
-215 -166 -230 3 -11 19 -16 71 -18 37 -2 67 -5 67 -8 0 -3 -36 -44 -79 -90
-118 -126 -186 -272 -160 -341 13 -34 26 -43 62 -43 90 0 331 190 392 310 24
48 37 56 67 45 11 -4 7 -21 -19 -73 -21 -44 -37 -97 -44 -147 -11 -80 -5 -170
12 -181 22 -13 127 54 205 131 63 62 90 98 122 164 23 46 42 92 42 102 0 11 6
19 13 19 110 0 281 13 395 30 79 12 146 19 149 16 9 -9 -31 -123 -96 -269
-110 -247 -112 -270 -27 -275 104 -7 283 81 414 203 94 87 152 167 194 264 30
70 33 86 35 190 l1 113 39 31 c21 18 44 40 51 49 7 10 19 18 26 18 22 0 96
-88 123 -147 49 -106 52 -198 16 -485 -10 -73 53 -64 137 21 72 72 141 177
179 273 98 246 35 442 -176 553 -29 15 -53 32 -53 37 0 18 80 111 116 136 20
13 69 39 109 57 76 35 150 92 160 126 4 10 19 32 36 48 24 25 29 37 29 78 -1
56 -33 128 -70 155 -14 10 -49 22 -79 27 -39 6 -59 15 -75 34 -21 27 -63 47
-94 47 -9 0 -31 -8 -49 -16z m113 -37 c16 -14 30 -39 34 -63 6 -31 9 -35 15
-19 8 26 79 32 113 9 28 -18 72 -108 72 -146 0 -35 -12 -41 -79 -42 -44 -1
-71 -9 -131 -41 -184 -96 -191 -99 -244 -99 -34 -1 -65 6 -94 21 l-42 23 16
-31 c16 -31 16 -31 -6 -16 -20 14 -24 13 -57 -22 -19 -20 -32 -28 -29 -19 4
15 1 16 -22 7 -25 -9 -24 -7 13 32 25 26 32 37 18 30 -40 -20 -73 -31 -73 -22
0 4 21 32 48 62 106 121 163 176 216 206 53 30 55 31 72 12 25 -28 35 -23 18
9 -17 33 -17 50 0 81 29 52 98 66 142 28z m-866 -217 c0 -19 -40 -90 -50 -90
-6 0 -9 3 -9 8 6 34 -19 44 -42 16 -9 -12 -23 -14 -50 -10 -41 7 -130 -17
-149 -39 -24 -29 -30 -14 -10 25 33 64 115 97 248 99 37 1 62 -3 62 -9z m-331
-59 c-12 -16 -31 -32 -43 -35 -12 -3 -35 -19 -52 -35 -21 -23 -38 -31 -65 -31
-45 0 -91 -19 -147 -60 -24 -17 -46 -29 -49 -27 -5 5 50 72 82 99 38 33 111
67 195 92 107 31 105 32 79 -3z m681 -6 c11 -13 9 -21 -8 -45 -12 -16 -22 -34
-22 -39 0 -5 -15 -26 -34 -45 -24 -26 -42 -36 -65 -36 -39 0 -40 17 -5 79 53
92 103 124 134 86z m-445 -69 c55 -25 164 -120 153 -132 -5 -4 -16 0 -26 9
-47 43 -217 109 -197 77 4 -7 -3 -8 -20 -4 -26 6 -27 5 -15 -16 11 -21 11 -22
-14 -18 -14 3 -24 2 -22 -1 3 -3 -2 -15 -11 -26 -14 -19 -15 -19 -27 -2 -12
16 -14 16 -20 2 -3 -9 -10 -14 -16 -10 -14 9 -50 -32 -50 -57 0 -13 -5 -30
-10 -38 -16 -25 -12 62 5 111 41 115 154 160 270 105z m-428 -91 c23 -16 60
-101 49 -112 -3 -3 -16 2 -29 13 -49 44 -56 47 -50 24 4 -16 2 -19 -11 -14 -9
3 -16 2 -16 -4 0 -5 -9 -12 -20 -15 -14 -4 -20 0 -20 11 -1 12 -10 6 -31 -18
-31 -35 -80 -123 -78 -137 3 -20 -2 -34 -11 -28 -31 19 6 155 58 216 63 73
116 94 159 64z m735 -45 c35 -27 26 -60 -28 -110 -41 -38 -47 -40 -106 -40
-35 0 -70 5 -78 11 -13 8 -11 12 10 27 14 9 54 43 90 74 36 31 70 57 76 57 6
1 23 -8 36 -19z m-1036 -111 c21 -23 36 -157 15 -145 -6 4 -11 13 -11 20 0 7
-11 26 -24 41 -27 31 -28 31 -88 -24 -16 -14 -28 -19 -28 -13 0 18 -28 14 -39
-5 -9 -16 -10 -16 -11 -2 0 21 49 88 89 122 39 32 71 34 97 6z m814 -54 c38
-20 38 -35 2 -35 -31 0 -98 -44 -122 -80 -56 -84 -186 -140 -234 -101 -9 7
-16 23 -16 36 0 18 19 31 103 73 56 28 127 66 157 85 64 41 71 42 110 22z
m756 -83 c32 -21 72 -57 87 -79 89 -129 100 -331 26 -462 -29 -50 -56 -70 -44
-31 5 14 2 20 -9 20 -25 0 -18 20 11 31 27 10 23 24 -10 31 -31 5 -24 23 11
26 52 5 33 32 -23 32 -13 0 -26 4 -29 9 -8 12 18 21 61 21 27 0 34 4 31 18 -2
12 -15 18 -46 20 -23 2 -42 7 -42 11 0 10 35 21 68 21 32 0 28 28 -5 32 -35 4
-40 24 -8 32 44 11 30 35 -22 38 l-48 4 38 17 c20 9 37 23 37 31 0 21 -27 38
-49 31 -25 -7 -35 9 -16 25 21 17 10 28 -20 22 -24 -4 -26 -2 -23 24 3 30 3
30 -46 16 -16 -4 -18 -1 -13 17 5 21 3 23 -29 17 -39 -8 -42 1 -13 38 28 35
55 33 125 -12z m-612 -66 c90 -52 164 -172 173 -276 5 -65 -7 -91 -32 -70 -14
12 -18 12 -26 -1 -13 -21 -11 -27 11 -39 25 -14 27 -50 2 -50 -10 0 -24 6 -30
12 -10 10 -15 10 -22 -2 -14 -22 -13 -23 20 -42 33 -19 38 -39 16 -57 -17 -14
-51 0 -73 28 -12 14 -14 14 -28 -3 -22 -28 -19 -33 25 -56 42 -22 50 -39 25
-60 -20 -17 -66 -4 -72 20 -3 11 -9 20 -13 20 -8 0 -44 -50 -38 -55 2 -1 18
-10 36 -19 34 -17 40 -34 20 -54 -17 -17 -38 -15 -60 5 -18 16 -20 15 -45 -9
l-26 -26 29 -26 c29 -24 29 -25 9 -40 -25 -20 -39 -20 -55 -1 -18 22 -33 19
-65 -15 -27 -28 -27 -31 -12 -48 16 -18 16 -19 -7 -30 -18 -8 -28 -8 -42 2
-15 11 -25 10 -65 -10 -83 -42 -111 -27 -31 17 53 30 152 106 152 117 0 4 -19
13 -42 20 -43 11 -43 11 -83 -30 -52 -54 -57 -33 -7 34 22 29 42 65 46 80 5
24 3 28 -19 34 -17 4 -25 12 -22 23 3 16 9 17 39 6 22 -9 78 45 78 74 0 17 -6
21 -34 21 -39 0 -53 14 -36 35 9 11 23 13 50 9 33 -5 40 -3 55 20 24 36 13 54
-35 62 -42 7 -45 10 -31 33 7 10 21 12 55 7 43 -7 49 -5 77 23 40 41 38 77 -6
73 -76 -7 -98 -6 -102 5 -3 7 13 16 37 23 30 8 46 20 58 42 9 17 28 43 40 59
28 35 21 36 -26 7 l-35 -22 6 23 c8 33 -17 10 -39 -37 -18 -35 -19 -36 -22
-12 -7 47 18 128 49 159 46 46 91 45 173 -3z m-544 -40 c0 -8 -4 -18 -10 -21
-5 -3 -10 -17 -10 -31 0 -44 -17 -62 -70 -73 -100 -22 -140 -11 -140 35 0 28
5 31 115 70 105 37 115 39 115 20z m-250 -71 c0 -3 -7 -17 -16 -31 -9 -13 -20
-39 -23 -57 -6 -26 -14 -34 -46 -44 -50 -15 -130 -16 -156 -3 -22 13 -26 62
-5 79 7 6 37 16 67 21 30 6 74 17 99 25 48 14 80 19 80 10z m-292 -82 c-14
-16 -33 -42 -41 -59 -15 -29 -21 -32 -74 -36 -97 -9 -138 22 -92 67 22 22 127
49 208 54 l25 1 -26 -27z m-218 -16 c0 -2 -19 -25 -43 -50 -43 -47 -43 -47
-109 -47 -37 0 -70 5 -73 10 -3 6 3 23 14 39 17 23 32 31 78 39 59 10 133 15
133 9z m-154 -277 c8 0 14 5 14 10 0 6 7 10 15 10 8 0 15 -4 15 -10 0 -14 27
-12 33 3 4 9 8 9 15 -2 9 -12 13 -13 26 -1 9 7 17 11 19 9 35 -61 35 -73 2
-67 -31 6 -40 -5 -20 -22 22 -18 7 -32 -26 -25 -32 7 -35 4 -17 -25 18 -28 -2
-47 -30 -29 -25 16 -40 5 -22 -16 16 -19 5 -54 -12 -37 -7 7 -21 12 -31 12
-16 0 -18 -5 -14 -30 7 -33 -7 -48 -28 -30 -21 18 -45 5 -45 -25 0 -25 -25
-36 -32 -14 -3 9 -9 9 -25 0 -12 -6 -26 -11 -32 -11 -20 0 -11 20 14 32 30 13
33 38 5 38 -23 0 -24 4 -10 30 7 13 7 21 0 25 -7 4 -7 13 0 26 6 11 15 17 20
14 13 -8 52 14 45 26 -4 5 -15 9 -26 9 -19 0 -18 4 11 40 17 22 40 40 51 40
10 0 19 3 19 8 0 10 44 29 48 20 2 -5 10 -8 18 -8z"/>
<path d="M2372 1790 c-50 -21 -49 -92 1 -125 72 -47 148 61 81 114 -29 23 -46
25 -82 11z"/>
</g>
</svg>
