<?xml version="1.0" standalone="no"?>
<!DOCTYPE svg PUBLIC "-//W3C//DTD SVG 20010904//EN"
 "http://www.w3.org/TR/2001/REC-SVG-20010904/DTD/svg10.dtd">
<svg version="1.0" xmlns="http://www.w3.org/2000/svg"
 width="1254.000000pt" height="1012.000000pt" viewBox="0 0 1254.000000 1012.000000"
 preserveAspectRatio="xMidYMid meet">
<metadata>
Created by potrace 1.16, written by Peter Selinger 2001-2019
</metadata>
<g transform="translate(0.000000,1012.000000) scale(0.100000,-0.100000)"
fill="#000000" stroke="none">
<path d="M5575 9799 c-16 -5 -57 -14 -90 -19 -112 -18 -196 -37 -204 -46 -5
-5 -16 -58 -25 -119 -10 -60 -21 -135 -26 -165 -5 -30 -12 -77 -15 -105 -3
-27 -10 -72 -15 -100 -5 -27 -16 -104 -25 -170 -9 -66 -20 -139 -26 -163 -11
-51 -12 -99 -1 -106 4 -2 79 1 167 7 l160 12 8 55 c16 104 11 97 79 107 35 5
69 7 76 5 8 -3 27 -33 43 -68 16 -35 33 -64 38 -64 10 0 53 11 211 55 52 15
96 28 98 29 4 4 -23 75 -53 141 -38 83 -78 171 -105 230 -12 28 -35 77 -50
110 -56 122 -97 211 -111 244 -58 138 -71 150 -134 130z"/>
<path d="M7217 9706 c-88 -43 -137 -108 -137 -180 0 -40 25 -111 52 -149 23
-32 18 -52 -18 -71 -60 -34 -155 -112 -174 -143 -33 -56 -37 -114 -11 -165 40
-77 106 -124 219 -154 97 -26 185 -16 310 34 l63 25 37 -36 c43 -42 54 -44 97
-17 17 11 44 26 62 35 57 30 59 39 14 88 -23 24 -41 47 -41 51 0 4 15 26 34
49 61 76 62 83 13 105 -137 63 -138 63 -172 25 l-24 -28 -45 44 c-25 24 -43
48 -40 53 3 5 34 27 70 49 75 48 109 86 125 139 24 80 -45 191 -155 245 -42
21 -64 25 -140 25 -75 -1 -100 -5 -139 -24z"/>
<path d="M4290 9514 c-99 -17 -143 -33 -276 -100 -163 -82 -195 -115 -165
-172 5 -9 18 -46 30 -82 16 -52 108 -321 134 -390 3 -8 8 -24 10 -35 3 -11 28
-83 54 -160 42 -122 52 -140 72 -143 13 -2 28 1 34 7 6 6 18 11 26 11 9 0 27
6 41 13 14 7 51 21 82 32 32 10 60 25 62 32 3 7 -6 48 -20 90 -14 43 -31 99
-38 124 l-13 47 35 16 c33 16 34 16 65 -16 18 -18 53 -57 77 -87 25 -30 56
-67 70 -83 l25 -28 100 60 c55 32 110 64 121 69 12 5 24 16 27 24 6 16 -6 28
-133 136 -41 35 -78 70 -82 76 -4 7 7 41 25 76 29 57 32 73 31 144 -2 155 -83
271 -224 322 -40 14 -133 23 -170 17z m24 -260 c28 -7 76 -79 76 -116 0 -67
-107 -165 -137 -126 -16 22 -73 207 -67 221 5 15 71 37 92 31 8 -2 24 -7 36
-10z"/>
<path d="M8889 8874 c-162 -163 -307 -309 -322 -325 -16 -16 -27 -35 -24 -43
3 -7 65 -53 138 -101 l133 -88 53 58 54 59 55 -29 c76 -40 77 -42 63 -119 -12
-69 -4 -96 27 -96 7 0 28 -6 46 -14 18 -8 49 -21 70 -30 20 -9 42 -16 50 -16
8 0 18 -4 24 -9 5 -5 23 -12 40 -15 40 -9 53 7 65 81 5 32 15 87 23 123 23
106 47 222 56 265 4 22 15 74 24 115 9 41 21 100 26 130 5 30 14 71 20 90 5
19 10 54 10 78 0 35 -4 44 -22 51 -33 13 -154 68 -222 102 -33 16 -67 29 -76
29 -9 0 -149 -133 -311 -296z"/>
<path d="M3130 8935 c-97 -21 -195 -78 -322 -187 -77 -66 -81 -81 -43 -143 14
-22 28 -47 32 -55 4 -8 31 -55 61 -105 30 -49 67 -111 81 -136 14 -25 76 -130
136 -233 127 -216 110 -207 240 -122 226 148 335 313 335 510 0 225 -143 425
-337 472 -68 16 -108 16 -183 -1z m137 -294 c45 -21 95 -81 114 -138 18 -54 8
-153 -20 -191 -39 -55 -31 -64 -167 194 -65 124 -66 131 -24 147 28 10 55 7
97 -12z"/>
<path d="M10133 8552 c-27 -26 -175 -194 -298 -337 -33 -39 -64 -75 -70 -81
-5 -6 -35 -39 -66 -75 -151 -172 -150 -170 -126 -192 56 -54 189 -157 201
-157 8 0 23 11 34 25 41 51 150 165 159 165 18 0 53 -37 53 -56 0 -11 -9 -44
-20 -74 -71 -189 -73 -200 -37 -223 75 -47 221 -118 232 -113 7 2 15 24 18 48
9 81 36 217 47 238 9 17 21 20 71 20 184 0 355 205 318 382 -17 83 -57 155
-123 223 -59 59 -74 72 -162 134 -37 26 -183 101 -197 101 -4 0 -19 -12 -34
-28z m201 -344 c37 -49 41 -79 17 -125 -37 -74 -94 -95 -170 -63 -78 34 -80
42 -28 97 24 26 59 65 77 86 41 47 70 48 104 5z"/>
<path d="M2223 8338 c-37 -35 -74 -70 -83 -78 -9 -8 -58 -53 -110 -100 -154
-139 -180 -163 -180 -170 0 -6 162 -194 401 -465 14 -16 61 -70 105 -120 43
-49 91 -103 106 -120 l27 -29 32 29 c18 17 80 75 138 130 58 56 136 130 174
165 37 35 67 70 67 77 0 21 -160 213 -177 213 -9 0 -55 -36 -103 -80 -48 -44
-97 -80 -108 -80 -19 0 -52 38 -52 60 0 6 30 39 67 74 l67 64 -19 28 c-41 65
-107 134 -120 126 -7 -4 -31 -23 -52 -43 -21 -19 -51 -44 -66 -53 -26 -18 -27
-18 -47 5 -10 13 -19 29 -20 34 0 6 41 51 90 102 50 50 90 100 90 110 0 23
-127 183 -146 183 -7 0 -44 -28 -81 -62z"/>
<path d="M11104 7740 c-20 -8 -234 -167 -234 -175 0 -2 27 -36 60 -75 34 -40
59 -76 58 -81 -3 -8 -115 -100 -302 -248 -60 -47 -126 -102 -147 -121 l-38
-35 85 -95 c46 -52 93 -96 103 -98 11 -2 66 29 128 71 59 40 172 117 250 170
78 53 148 97 155 97 7 0 38 -30 68 -65 30 -36 61 -65 69 -65 12 0 39 18 140
95 7 5 29 24 48 42 l34 32 -103 127 c-57 69 -146 179 -198 243 -160 197 -153
190 -176 181z"/>
<path d="M1479 7545 c-19 -25 -47 -62 -63 -83 -59 -77 -96 -140 -91 -153 3 -8
86 -77 183 -155 97 -77 250 -200 339 -272 89 -73 169 -132 177 -132 14 0 166
200 166 219 0 4 -26 32 -57 61 -106 98 -217 203 -402 380 -100 96 -191 176
-200 178 -12 2 -30 -14 -52 -43z"/>
<path d="M982 6800 c-125 -58 -239 -211 -305 -410 -35 -105 -38 -125 -24 -142
11 -14 90 -64 127 -81 8 -4 29 -15 45 -25 17 -10 57 -34 90 -52 33 -18 77 -44
97 -57 21 -12 40 -23 43 -23 2 0 34 -18 70 -40 36 -22 67 -40 69 -40 2 0 54
-29 116 -65 62 -36 123 -68 135 -71 24 -6 33 4 83 98 16 29 42 75 56 101 31
55 30 66 -10 87 -16 8 -57 32 -92 52 -34 21 -65 38 -68 38 -3 0 -19 9 -34 20
-32 23 -32 27 16 140 24 57 27 78 28 175 1 97 -2 115 -23 154 -28 53 -88 112
-139 136 -21 10 -45 22 -54 26 -10 5 -50 9 -90 9 -59 -1 -85 -7 -136 -30z
m152 -280 c32 -12 66 -65 66 -103 0 -31 -25 -87 -40 -87 -21 0 -160 93 -160
107 0 22 39 73 64 83 28 12 40 12 70 0z"/>
<path d="M11750 6698 c-89 -46 -554 -285 -682 -351 -67 -33 -71 -47 -33 -107
14 -22 25 -42 25 -45 0 -2 18 -34 40 -70 22 -36 40 -67 40 -70 0 -3 18 -34 40
-70 22 -36 40 -67 40 -70 0 -13 63 -105 72 -105 6 0 34 11 62 24 28 13 81 38
119 55 41 19 67 37 67 46 0 17 -48 115 -87 177 -32 52 -29 71 12 90 33 14 35
14 55 -7 11 -12 20 -24 20 -28 0 -22 64 -107 80 -107 11 0 53 16 96 35 71 32
76 37 70 60 -4 14 -20 47 -36 74 -17 26 -30 58 -30 70 0 23 32 41 60 34 8 -2
45 -52 80 -111 36 -59 72 -108 81 -110 9 -2 60 17 113 42 108 51 113 60 71
126 -14 22 -25 42 -25 45 0 3 -20 40 -43 83 -24 42 -62 111 -84 152 -85 158
-102 185 -115 187 -7 1 -56 -21 -108 -49z"/>
<path d="M8721 6674 c-99 -31 -188 -129 -206 -228 -6 -31 -44 -68 -100 -96
-15 -7 -129 -84 -135 -90 -3 -3 -33 -27 -68 -54 -34 -26 -127 -110 -206 -187
-79 -76 -149 -139 -157 -139 -15 0 -72 18 -116 37 -17 7 -36 13 -42 13 -6 0
-19 4 -29 10 -9 5 -75 23 -147 40 -71 17 -146 35 -165 40 -145 36 -199 44
-430 64 -212 19 -334 19 -545 0 -234 -20 -298 -30 -435 -64 -19 -5 -66 -16
-105 -25 -99 -22 -185 -45 -220 -60 -16 -7 -68 -25 -115 -40 -107 -34 -124
-41 -250 -98 -30 -14 -75 -33 -100 -43 -25 -9 -50 -21 -55 -25 -6 -5 -49 -27
-95 -50 -47 -22 -117 -61 -156 -85 -39 -24 -74 -44 -78 -44 -4 0 -41 -22 -83
-50 -42 -27 -78 -50 -80 -50 -6 0 -96 -62 -103 -71 -3 -3 -25 -19 -50 -34 -73
-46 -302 -222 -407 -314 -23 -20 -71 -61 -106 -91 -84 -71 -453 -442 -542
-545 -39 -44 -72 -82 -75 -85 -5 -5 -132 -156 -171 -205 -66 -80 -117 -147
-203 -265 -55 -74 -105 -139 -113 -143 -27 -16 -113 -150 -113 -176 0 -54 5
-56 197 -61 161 -5 178 -7 181 -23 2 -12 -13 -33 -44 -60 -86 -75 -215 -210
-289 -302 -65 -80 -145 -191 -145 -201 0 -2 -11 -20 -25 -40 -30 -44 -89 -166
-115 -239 -63 -173 -45 -338 41 -388 36 -20 152 -24 196 -5 135 56 303 148
343 188 3 3 25 20 50 39 147 113 377 327 435 406 17 22 36 46 42 53 19 19 76
120 98 172 10 25 25 53 33 63 20 22 86 22 129 -1 l33 -17 -33 -55 c-40 -67
-87 -166 -87 -183 0 -7 -4 -17 -8 -22 -29 -33 -67 -187 -83 -337 -13 -130 -7
-363 11 -415 20 -56 69 -43 265 67 51 28 204 140 241 175 6 5 28 26 50 46 126
114 271 312 349 477 61 127 61 127 80 197 24 89 35 114 56 120 11 4 90 3 177
0 100 -5 201 -3 277 5 66 6 163 16 215 21 131 12 234 25 305 38 33 5 114 17
180 26 66 9 143 20 170 25 103 19 113 19 124 6 28 -34 -109 -401 -314 -841
-31 -68 -33 -71 -75 -180 -18 -44 -36 -89 -41 -100 -25 -56 -61 -185 -61 -221
0 -84 45 -125 136 -123 42 0 168 20 241 37 71 17 281 100 362 143 72 39 215
123 238 141 6 4 47 35 93 68 234 170 505 472 612 680 19 36 39 72 45 80 12 16
81 181 97 235 51 168 52 174 52 380 0 131 -4 210 -12 228 -16 37 3 74 55 109
49 32 124 99 188 166 52 54 76 62 110 36 211 -159 351 -411 387 -699 27 -212
11 -558 -37 -801 -31 -156 -33 -246 -5 -274 99 -99 435 188 663 567 160 267
234 469 277 760 13 92 13 146 -1 252 -36 271 -160 487 -373 649 -34 25 -63 49
-66 52 -3 4 -25 16 -50 29 -25 12 -63 33 -85 47 -22 13 -64 35 -93 49 -29 13
-55 31 -58 39 -7 18 20 77 52 111 14 15 43 52 66 83 23 32 57 74 76 94 69 74
251 180 462 269 192 80 342 218 385 354 3 11 27 34 52 51 27 17 60 51 77 79
28 45 30 55 30 144 0 100 -24 191 -79 301 -45 89 -138 170 -196 170 -10 0 -20
4 -23 9 -3 5 -41 12 -83 15 -117 10 -161 25 -192 66 -34 45 -71 82 -100 98
-71 41 -179 52 -260 26z m201 -74 c107 -53 148 -117 148 -230 0 -38 4 -70 8
-70 16 0 40 35 47 68 9 41 26 49 60 26 26 -17 28 -17 40 -1 28 39 165 6 225
-53 30 -31 84 -124 112 -195 19 -49 39 -169 34 -200 -4 -19 -18 -48 -32 -64
-22 -27 -27 -29 -60 -19 -64 17 -253 0 -309 -29 -52 -27 -153 -73 -159 -73 -3
0 -25 -12 -49 -27 -23 -15 -80 -48 -127 -74 -47 -25 -106 -58 -131 -72 -54
-32 -166 -75 -229 -89 -71 -16 -191 -21 -203 -9 -6 6 -21 11 -34 11 -24 0 -97
32 -157 69 -60 38 -67 15 -19 -62 14 -22 22 -41 20 -44 -7 -6 -46 15 -71 38
-11 11 -25 19 -31 19 -7 0 -29 -25 -50 -56 -37 -53 -120 -122 -132 -110 -4 3
-1 18 6 32 6 15 9 29 7 32 -3 2 -29 -7 -58 -21 -29 -13 -57 -22 -62 -20 -4 3
28 39 73 80 45 41 81 81 81 89 0 18 -5 18 -38 0 -47 -25 -100 -46 -114 -46 -8
0 -19 -5 -25 -11 -18 -18 -42 -4 -36 20 4 16 169 212 202 241 3 3 24 28 45 55
69 87 258 275 336 334 89 66 102 74 158 100 24 11 56 30 73 42 l30 21 37 -40
c39 -42 80 -68 90 -57 4 3 2 9 -4 13 -17 12 -44 78 -50 125 -18 127 58 230
206 280 37 13 86 5 142 -23z m-2258 -596 c23 -9 19 -49 -9 -94 -14 -22 -25
-44 -25 -50 0 -15 -40 -91 -56 -108 -19 -18 -44 -8 -44 17 0 11 -4 23 -10 26
-5 3 -10 19 -10 35 0 28 -2 29 -27 19 -14 -5 -37 -21 -49 -34 -13 -14 -28 -25
-34 -25 -5 0 -19 -5 -30 -12 -15 -10 -32 -10 -78 0 -69 14 -132 15 -164 3 -13
-5 -44 -14 -71 -20 -64 -15 -127 -46 -173 -85 -22 -18 -47 -36 -58 -39 -16 -7
-18 -4 -11 30 9 51 66 142 115 187 44 39 131 83 234 116 91 29 449 54 500 34z
m327 -8 c95 -15 137 -26 196 -52 17 -8 35 -14 41 -14 5 0 30 -9 55 -20 34 -15
45 -25 40 -36 -5 -14 -30 -15 -214 -11 l-208 6 -3 -27 c-3 -24 -7 -27 -41 -27
-21 0 -37 -5 -37 -11 0 -6 -6 -17 -14 -23 -7 -6 -16 -25 -20 -41 -4 -20 -11
-30 -24 -30 -10 0 -24 -11 -30 -25 -10 -22 -15 -24 -32 -15 -31 17 -28 154 5
234 27 67 38 76 110 92 68 16 69 16 176 0z m-1147 -105 c3 -5 -17 -36 -44 -69
-47 -55 -63 -67 -145 -103 -16 -8 -41 -24 -55 -37 -14 -13 -37 -31 -52 -40
-16 -9 -28 -22 -28 -28 0 -7 -7 -14 -15 -18 -8 -3 -15 -15 -15 -26 0 -19 -6
-20 -112 -20 -94 0 -125 -5 -183 -25 -63 -22 -207 -110 -260 -158 -24 -23 -75
-50 -81 -44 -11 11 48 97 114 168 156 166 329 261 647 354 33 10 68 21 77 26
10 5 30 9 45 10 16 0 37 4 48 9 27 12 53 12 59 1z m1733 -48 c20 -9 38 -25 41
-35 2 -10 8 -18 12 -18 8 0 -19 -81 -30 -90 -4 -3 -15 -20 -25 -37 -11 -18
-23 -33 -27 -33 -4 0 -8 -9 -8 -19 0 -11 -7 -26 -15 -35 -8 -8 -15 -19 -15
-25 0 -14 -62 -101 -72 -101 -4 0 -8 -5 -8 -12 0 -20 -32 -48 -57 -48 -12 0
-23 -4 -23 -9 0 -14 -60 -22 -113 -15 -76 10 -80 32 -27 136 73 144 143 251
198 306 46 45 58 52 93 52 23 0 57 -8 76 -17z m1811 -69 c32 -22 28 -68 -11
-134 -31 -52 -103 -114 -119 -104 -5 3 -8 16 -8 30 0 13 -4 24 -9 24 -6 0 -47
-25 -92 -55 -101 -68 -126 -74 -74 -17 14 15 25 30 25 34 0 19 -46 5 -106 -33
-36 -23 -68 -39 -71 -35 -4 4 13 27 37 51 50 50 42 55 -40 24 -30 -11 -64 -23
-75 -26 -11 -3 -24 -9 -30 -13 -16 -11 -55 -19 -55 -11 0 7 55 51 64 51 3 0
47 28 98 62 99 66 230 137 288 155 54 17 152 16 178 -3z m-3031 -112 c132 -46
290 -153 395 -267 69 -76 80 -91 76 -115 -3 -18 -9 -16 -71 23 -38 23 -80 48
-93 55 -13 7 -24 17 -24 23 0 5 -6 9 -13 9 -7 0 -72 29 -144 65 -127 63 -209
90 -232 75 -6 -3 -10 -17 -9 -31 2 -19 -2 -25 -21 -27 -13 -2 -26 0 -30 6 -8
12 -61 25 -61 15 0 -5 7 -17 15 -27 8 -11 15 -32 15 -48 0 -33 -20 -36 -75
-13 -35 14 -35 14 -29 -10 4 -16 -1 -30 -15 -44 -12 -12 -21 -28 -21 -36 0
-17 -38 -35 -57 -28 -7 3 -13 13 -13 22 0 9 -7 24 -14 34 -12 16 -16 14 -41
-25 -25 -37 -29 -40 -40 -25 -11 15 -14 16 -25 2 -7 -8 -20 -15 -29 -15 -22 0
-66 -76 -74 -128 -9 -55 -37 -123 -47 -117 -17 10 -22 96 -11 163 20 121 27
146 67 225 62 125 150 204 279 252 62 23 262 15 342 -13z m-1457 -133 c0 -6
-22 -41 -49 -78 -26 -36 -61 -88 -76 -116 -70 -127 -99 -174 -107 -169 -4 3
-8 23 -8 45 0 21 -4 39 -9 39 -5 0 -28 -18 -51 -40 -24 -22 -45 -38 -48 -36
-2 3 -19 -5 -36 -18 -17 -12 -56 -33 -86 -45 -30 -13 -72 -36 -92 -52 -37 -30
-87 -53 -95 -45 -9 9 27 64 74 112 115 120 309 276 428 344 33 19 74 42 90 52
35 20 65 23 65 7z m365 -128 c56 -32 92 -78 125 -161 12 -30 26 -64 30 -75 5
-11 11 -35 14 -53 10 -57 -18 -51 -89 17 -35 33 -69 61 -77 61 -7 0 -22 3 -34
6 -18 5 -20 2 -16 -30 4 -31 1 -36 -17 -36 -12 0 -21 5 -21 10 0 18 -25 11
-38 -11 -10 -15 -21 -20 -42 -17 -19 3 -31 -1 -39 -15 -10 -15 -15 -16 -27 -7
-8 7 -14 23 -14 37 l0 25 -30 -30 c-16 -17 -30 -35 -30 -41 0 -6 -4 -11 -9
-11 -5 0 -11 -10 -15 -23 -3 -13 -17 -29 -31 -37 -14 -7 -25 -17 -25 -21 0 -4
-11 -20 -25 -35 -14 -15 -25 -37 -25 -50 0 -12 -7 -29 -15 -38 -8 -8 -15 -21
-15 -30 0 -8 -4 -18 -10 -21 -5 -3 -10 -15 -10 -26 0 -11 -7 -22 -15 -25 -18
-7 -20 -45 -3 -62 15 -15 3 -15 -24 -1 -20 11 -20 9 -14 -27 l7 -39 -27 30
c-26 28 -26 32 -20 110 20 258 178 513 381 614 97 49 133 51 200 12z m3055
-11 c0 -6 -14 -26 -32 -46 -67 -74 -221 -271 -252 -324 -35 -59 -295 -327
-336 -347 -78 -37 -102 -45 -117 -39 -13 5 -3 15 43 43 97 58 180 150 334 368
117 166 230 288 297 320 18 9 35 20 38 25 8 13 25 13 25 0z m-1112 -87 c15
-10 42 -31 60 -47 29 -27 32 -34 32 -89 0 -66 -15 -91 -120 -198 -99 -102
-225 -135 -395 -105 -158 28 -170 48 -73 116 107 76 210 161 303 252 81 79 94
88 128 88 21 0 50 -8 65 -17z m694 -59 c-3 -50 -10 -68 -47 -125 -63 -92 -215
-232 -215 -197 0 7 9 19 19 25 11 7 22 25 25 40 4 16 20 44 37 63 28 32 63 89
133 213 36 63 52 57 48 -19z m548 36 c0 -5 -6 -10 -12 -11 -20 -1 -94 -94
-158 -199 -183 -298 -229 -354 -330 -408 -35 -18 -65 -31 -67 -28 -3 3 11 20
30 38 34 32 79 94 214 298 89 134 85 129 119 171 46 55 58 66 121 109 58 40
83 49 83 30z m85 -151 c4 -6 -3 -18 -16 -27 -32 -22 -119 -114 -120 -127 0 -5
-16 -30 -34 -55 -19 -25 -52 -75 -74 -111 -34 -56 -79 -113 -151 -190 -28 -31
-71 -52 -81 -42 -6 6 5 28 34 64 24 30 72 104 107 164 89 154 150 246 169 252
9 4 29 16 46 27 30 22 95 55 107 56 4 0 10 -5 13 -11z m-4079 -118 c39 -28 60
-63 83 -134 15 -45 17 -285 3 -299 -16 -16 -52 28 -52 61 0 16 -6 31 -15 35
-8 3 -15 16 -15 30 0 15 -7 25 -20 29 -11 3 -23 13 -27 23 -17 45 -55 68 -66
40 -3 -7 -25 -23 -49 -34 -36 -18 -84 -63 -108 -102 -3 -5 -18 -12 -33 -15
-24 -6 -29 -4 -34 15 -5 17 -11 20 -32 15 -14 -4 -37 -17 -52 -31 -30 -28 -35
-29 -43 -8 -15 39 108 218 209 303 63 54 151 100 191 101 12 0 39 -13 60 -29z
m-348 -53 c4 -20 -38 -70 -75 -88 -26 -13 -163 -147 -163 -159 -1 -12 -102
-72 -117 -69 -11 2 -1 21 35 68 61 80 152 167 254 240 43 32 61 34 66 8z
m2515 -119 c34 -17 70 -38 80 -47 25 -22 22 -52 -5 -53 -55 -1 -87 -8 -124
-25 -51 -23 -142 -91 -172 -126 -13 -15 -44 -48 -68 -73 -24 -25 -44 -50 -44
-56 0 -27 -156 -159 -189 -159 -12 0 -21 -4 -21 -9 0 -12 -57 -41 -80 -41 -10
0 -23 -6 -29 -14 -24 -29 -233 -26 -263 5 -33 34 -48 66 -48 106 0 53 21 75
110 115 36 17 120 57 187 89 68 32 126 59 129 59 3 0 20 10 37 23 18 12 50 31
72 43 86 44 144 78 230 134 50 32 100 59 113 59 12 1 51 -13 85 -30z m1883
-144 c70 -28 144 -67 144 -76 0 -5 5 -9 10 -9 16 0 111 -73 151 -116 69 -76
107 -130 152 -219 78 -156 93 -203 123 -400 23 -153 15 -265 -33 -480 -23
-106 -137 -321 -188 -357 -23 -17 -37 -8 -31 20 20 80 21 77 -23 91 -67 20
-48 71 26 71 16 0 38 6 49 14 32 24 7 49 -61 61 -104 18 -97 75 9 75 79 0 96
8 96 41 0 31 -3 32 -125 44 -62 6 -109 28 -102 48 5 17 52 27 157 35 l95 7 3
35 c5 49 -15 60 -114 60 -66 0 -86 4 -105 19 -18 14 -21 23 -13 31 16 16 121
39 181 40 47 0 53 2 59 24 9 37 1 43 -72 49 -48 3 -72 10 -86 25 -31 31 -11
54 64 73 56 15 63 19 60 40 -5 51 -7 52 -94 46 -45 -3 -92 -1 -105 4 -30 11
-31 45 0 54 12 4 38 13 57 21 98 41 106 58 60 123 -30 41 -34 43 -68 37 -21
-3 -46 -9 -58 -12 -13 -3 -28 1 -38 11 -15 15 -14 19 19 58 56 65 41 88 -37
59 -72 -26 -109 5 -69 58 26 37 27 56 0 70 -16 9 -34 7 -84 -11 -53 -20 -66
-21 -79 -10 -20 17 -20 40 0 70 31 43 -17 50 -93 14 -42 -20 -67 -14 -71 17
-2 18 13 44 53 93 54 64 59 67 100 67 23 0 60 -7 81 -15z m-1226 -34 c0 -5 10
-13 23 -17 12 -4 51 -26 87 -50 36 -23 94 -52 130 -64 36 -11 73 -25 82 -31
10 -5 34 -9 55 -9 26 0 34 -3 26 -11 -7 -7 -39 -8 -109 0 -121 12 -196 31
-190 48 3 7 -1 10 -9 7 -7 -3 -31 6 -54 20 -57 37 -75 35 -67 -6 3 -18 15 -40
26 -50 21 -17 26 -28 12 -28 -10 0 -66 44 -104 83 -15 15 -29 27 -32 27 -3 0
-19 13 -36 29 l-31 28 23 7 c13 3 42 6 66 6 23 0 42 5 42 10 0 6 14 10 30 10
17 0 30 -4 30 -9z m-3515 -127 c21 -14 25 -24 25 -63 0 -54 -13 -73 -44 -62
-11 4 -48 5 -81 2 -49 -5 -71 -14 -113 -45 -61 -44 -69 -31 -27 41 25 42 96
96 168 127 42 19 44 19 72 0z m3185 -51 c115 -53 245 -166 373 -323 30 -37
114 -201 134 -260 27 -80 43 -176 42 -253 -1 -86 -16 -158 -36 -164 -6 -2 -27
10 -46 26 -43 39 -62 39 -82 1 -25 -48 -19 -63 40 -98 59 -35 68 -58 45 -116
-13 -35 -62 -35 -112 -1 -20 14 -43 25 -51 25 -8 0 -24 -19 -36 -42 l-21 -42
34 -17 c19 -9 45 -19 59 -22 36 -10 77 -55 77 -87 0 -17 -12 -40 -30 -60 -28
-30 -34 -32 -72 -26 -55 9 -102 39 -128 82 -12 18 -25 34 -29 34 -16 0 -49
-36 -69 -75 -22 -44 -16 -74 16 -76 33 -1 157 -74 171 -100 14 -25 13 -29 -20
-73 -30 -40 -39 -45 -72 -46 -70 0 -147 57 -147 110 0 13 -7 20 -19 20 -23 0
-104 -113 -99 -137 2 -9 33 -28 73 -44 67 -27 115 -66 115 -93 0 -25 -58 -93
-85 -100 -33 -8 -106 24 -134 60 -10 13 -25 24 -32 24 -20 0 -129 -112 -129
-132 0 -10 19 -28 43 -42 24 -14 53 -37 66 -50 27 -29 19 -51 -33 -91 -49 -37
-86 -33 -137 15 -23 22 -47 40 -54 40 -6 0 -29 -16 -51 -36 -21 -19 -58 -51
-81 -71 -24 -19 -43 -43 -43 -52 0 -10 14 -30 30 -46 43 -41 39 -59 -21 -88
-42 -21 -55 -24 -80 -15 -16 5 -35 18 -42 27 -22 31 -36 32 -74 8 -50 -30
-150 -77 -166 -77 -7 0 -22 -7 -33 -15 -22 -17 -90 -20 -99 -4 -7 11 22 49 36
49 5 0 54 28 109 63 56 34 116 70 133 81 18 10 34 21 37 25 3 4 30 26 60 50
93 73 162 141 157 155 -3 8 -23 16 -44 19 -32 4 -76 16 -165 44 -11 3 -34 -13
-70 -52 -150 -161 -169 -175 -176 -127 -2 13 24 59 76 129 105 144 131 186
148 242 24 78 25 76 -93 122 -30 11 -31 54 -2 69 16 9 32 8 71 -5 48 -15 51
-15 93 5 61 29 108 85 129 153 25 78 16 87 -81 87 -85 0 -113 11 -113 44 0 27
50 86 73 86 8 0 31 -7 50 -15 20 -8 50 -15 67 -15 36 0 105 46 119 80 14 32
17 118 5 129 -9 9 -31 13 -154 29 -46 6 -55 10 -58 29 -2 12 4 35 13 52 14 29
19 31 71 31 30 0 71 -7 91 -15 54 -23 89 -18 149 20 64 41 110 107 120 173 6
41 4 48 -20 69 -36 31 -71 29 -150 -8 -55 -26 -76 -30 -113 -26 -50 5 -87 34
-78 59 8 19 74 48 110 48 59 0 120 61 191 190 10 19 27 44 37 55 26 28 60 85
55 90 -8 8 -83 -32 -132 -70 -26 -20 -51 -33 -57 -30 -5 4 -7 21 -3 40 3 18 2
35 -4 39 -12 7 -64 -65 -103 -143 -48 -99 -66 -79 -51 56 29 259 121 402 282
438 58 14 143 -2 230 -42z m-1368 -148 c-2 -16 -10 -46 -20 -65 -9 -19 -17
-64 -18 -100 -1 -36 -7 -66 -13 -68 -6 -2 -11 -13 -11 -23 0 -29 -49 -68 -85
-69 -17 0 -36 -5 -42 -11 -6 -6 -42 -15 -80 -19 -37 -5 -95 -13 -128 -19 -95
-17 -138 -14 -167 12 -35 31 -48 59 -48 105 0 82 73 126 325 197 33 9 69 21
80 26 20 9 42 18 125 50 65 25 86 21 82 -16z m-662 -200 c0 -9 -17 -48 -37
-88 -54 -105 -53 -103 -53 -148 0 -58 -40 -109 -86 -109 -18 0 -36 -4 -39 -10
-3 -5 -26 -10 -51 -10 -25 0 -54 -5 -64 -10 -29 -15 -267 -17 -282 -2 -7 7
-18 12 -26 12 -31 0 -51 43 -52 107 0 58 3 66 35 101 31 35 43 40 117 55 46 9
97 18 113 21 44 7 117 25 140 35 11 5 31 12 45 15 14 2 61 14 105 24 101 25
135 27 135 7z m-730 -158 c0 -15 -30 -55 -77 -107 -18 -19 -33 -42 -33 -52 0
-10 -4 -18 -10 -18 -5 0 -10 -9 -10 -19 0 -11 -7 -26 -15 -35 -8 -8 -15 -19
-15 -25 0 -5 -15 -21 -33 -35 -31 -24 -42 -26 -132 -26 -54 0 -114 -5 -132
-12 -27 -10 -38 -10 -53 0 -11 7 -32 12 -47 12 -39 0 -72 39 -79 92 -6 43 -5
46 47 101 l54 57 100 15 c55 9 129 23 165 31 36 8 83 14 105 14 22 0 47 5 55
10 23 15 110 13 110 -3z m-622 -105 c4 -10 -13 -32 -52 -66 -31 -28 -78 -82
-104 -121 l-47 -70 -187 -3 c-180 -2 -188 -2 -209 19 -19 19 -20 24 -8 48 23
43 88 139 100 147 13 8 100 21 215 32 44 5 87 13 95 18 16 10 143 21 172 15
10 -2 21 -11 25 -19z m2316 -30 c154 -116 230 -160 324 -188 52 -16 62 -22 60
-39 -5 -36 -47 -47 -114 -29 -32 8 -63 19 -68 25 -6 5 -16 9 -23 9 -8 0 -26 8
-41 19 -15 10 -53 35 -85 57 -70 46 -147 126 -147 152 0 44 29 42 94 -6z
m-315 -39 c20 -15 41 -32 46 -38 6 -6 32 -29 60 -51 111 -88 183 -138 232
-161 29 -13 55 -29 58 -34 4 -5 14 -9 23 -9 9 0 28 -9 42 -20 21 -17 23 -21
10 -30 -27 -18 -63 -23 -81 -11 -10 6 -26 11 -34 11 -23 0 -117 48 -205 105
-82 53 -194 155 -216 197 -35 68 0 90 65 41z m-221 -111 c139 -127 217 -187
327 -254 50 -30 90 -61 90 -69 0 -25 -93 -17 -155 15 -154 77 -365 253 -408
338 -29 59 -28 68 8 68 24 0 52 -20 138 -98z m-288 -87 c132 -128 191 -177
272 -226 61 -36 68 -52 24 -57 -108 -13 -528 353 -456 398 23 14 42 0 160
-115z m-309 -58 c58 -56 138 -124 178 -150 39 -27 71 -52 71 -58 0 -19 -68 -8
-117 19 -123 67 -300 246 -278 281 15 25 46 5 146 -92z m-327 -40 c25 -30 70
-74 101 -98 59 -47 69 -69 32 -69 -58 0 -207 145 -207 203 0 31 28 18 74 -36z
m-898 -315 c6 -4 15 -18 19 -32 4 -14 18 -37 32 -51 32 -34 28 -78 -7 -98 -23
-12 -30 -12 -62 3 -55 27 -80 -1 -37 -40 36 -32 42 -53 24 -80 -20 -31 -65
-32 -105 -2 -24 17 -32 19 -45 8 -22 -18 -19 -33 15 -65 38 -37 40 -76 4 -100
-22 -14 -31 -15 -55 -5 -16 7 -29 17 -29 22 0 15 -44 26 -62 16 -26 -13 -22
-37 12 -70 39 -37 39 -77 -1 -98 -18 -10 -69 5 -69 21 0 11 -49 21 -71 14 -24
-8 -26 -70 -4 -99 22 -29 18 -53 -9 -71 -26 -17 -50 -11 -76 19 -18 23 -83 21
-104 -3 -13 -14 -15 -28 -10 -58 8 -54 -9 -85 -44 -81 -16 2 -31 12 -37 26
-12 28 -24 28 -85 -3 -50 -25 -104 -33 -114 -16 -12 18 6 37 69 76 35 22 66
46 69 53 13 31 -17 52 -76 52 -15 0 -29 3 -32 8 -2 4 7 32 21 62 23 50 24 57
11 80 -11 19 -12 31 -4 51 19 46 35 60 55 47 23 -14 63 -4 97 25 22 19 26 29
20 52 -7 26 -9 27 -50 22 -24 -4 -46 -4 -49 -1 -7 7 45 87 100 156 34 43 42
48 79 48 46 0 64 14 64 48 0 22 3 24 37 17 32 -6 39 -3 59 22 l23 28 24 -29
c19 -23 29 -28 50 -22 14 3 29 15 32 26 8 27 60 28 74 1 20 -36 65 -37 74 0 7
27 39 24 66 -7 l23 -27 31 32 c34 33 36 34 53 23z"/>
<path d="M8745 6546 c-93 -43 -136 -140 -104 -237 23 -67 110 -129 183 -129
65 0 138 46 170 107 19 37 22 133 5 166 -19 37 -62 78 -98 93 -42 18 -117 17
-156 0z m93 -68 c34 -32 29 -79 -12 -122 -27 -30 -40 -36 -73 -36 -57 0 -86
28 -85 81 1 90 105 137 170 77z"/>
<path d="M8375 6091 c-38 -21 -71 -45 -73 -54 -5 -23 48 -47 103 -47 35 0 57
7 85 28 44 31 57 59 30 67 -9 3 -25 14 -35 25 -24 26 -28 26 -110 -19z"/>
<path d="M8090 5765 c0 -13 37 -63 75 -101 61 -63 108 -84 187 -84 37 0 69 4
72 9 7 10 -48 61 -89 83 -34 17 -95 38 -114 38 -18 0 -99 38 -106 50 -6 10
-25 14 -25 5z"/>
<path d="M6225 4530 c-3 -5 -15 -10 -26 -10 -10 0 -19 -4 -19 -9 0 -9 -52 -40
-140 -84 -25 -12 -50 -26 -56 -32 -6 -5 -41 -23 -77 -40 -66 -30 -83 -45 -49
-45 40 0 235 90 299 138 64 48 104 92 84 92 -6 0 -13 -4 -16 -10z"/>
<path d="M6701 3960 c-14 -43 0 -76 37 -83 16 -3 36 -13 44 -21 8 -8 21 -15
29 -16 54 -8 63 13 25 55 -14 15 -28 39 -31 55 -5 21 -14 29 -37 34 -49 10
-55 8 -67 -24z"/>
<path d="M6637 3464 c-38 -25 -38 -26 -35 -87 l3 -62 50 2 c54 2 70 15 109 88
l19 35 -23 25 c-31 33 -74 32 -123 -1z"/>
<path d="M7037 3408 c-22 -18 -47 -68 -40 -84 6 -17 65 -54 84 -54 16 1 69 73
69 93 0 13 -68 57 -87 57 -5 0 -17 -6 -26 -12z"/>
<path d="M6635 3250 c-11 -5 -35 -25 -54 -44 -19 -20 -38 -36 -42 -36 -15 0
-37 -53 -44 -105 -3 -28 -13 -66 -20 -86 -20 -53 -4 -71 63 -72 61 0 77 11
131 92 20 29 47 70 60 89 31 47 25 116 -14 149 -28 24 -47 27 -80 13z"/>
<path d="M6886 3230 c-47 -22 -60 -41 -51 -79 4 -20 15 -31 43 -41 20 -7 42
-15 48 -17 11 -4 94 101 94 118 0 12 -56 39 -77 38 -10 0 -36 -9 -57 -19z"/>
<path d="M6348 2797 c-42 -33 -43 -35 -40 -84 2 -30 -3 -66 -12 -88 -9 -21
-16 -44 -16 -51 0 -27 113 -64 197 -64 l60 0 59 63 c33 34 82 95 108 136 56
84 54 91 -36 91 -60 0 -52 5 -124 -83 -8 -10 -23 -17 -32 -15 -14 3 -17 14
-15 54 2 46 -1 52 -23 63 -43 19 -80 13 -126 -22z"/>
<path d="M2872 3014 c-30 -20 -28 -52 5 -86 43 -45 94 -33 120 30 14 35 14 37
-7 54 -27 22 -88 23 -118 2z"/>
<path d="M3082 2988 c-7 -7 -12 -29 -12 -50 0 -48 18 -58 104 -58 61 0 66 2
72 24 15 60 -20 100 -52 59 -13 -17 -15 -17 -38 10 -27 29 -54 35 -74 15z"/>
<path d="M2955 2842 c-22 -15 -41 -35 -43 -43 -3 -19 44 -68 78 -81 43 -16
107 -1 130 32 40 56 12 94 -47 63 -15 -8 -29 -11 -30 -6 -9 25 -29 57 -38 59
-5 2 -28 -9 -50 -24z"/>
<path d="M2772 2694 c-31 -21 -29 -67 4 -93 38 -30 61 -34 113 -20 53 14 81
35 81 59 0 31 -29 31 -61 -1 -41 -40 -55 -33 -51 25 l3 46 -33 0 c-19 0 -44
-7 -56 -16z"/>
<path d="M8579 1017 c-48 -22 -59 -37 -59 -83 0 -37 5 -46 33 -67 17 -14 48
-27 67 -31 46 -8 100 -42 100 -62 0 -23 -40 -53 -72 -54 -14 0 -40 11 -56 25
-34 29 -82 34 -82 9 0 -9 14 -29 31 -45 28 -26 38 -29 101 -29 80 0 117 19
138 71 20 47 -6 89 -69 112 -27 9 -57 17 -68 17 -22 0 -63 35 -63 53 1 42 79
59 117 24 24 -21 73 -23 73 -2 0 54 -121 93 -191 62z"/>
<path d="M11214 1016 c-96 -42 -79 -148 27 -176 108 -28 139 -59 94 -97 -14
-13 -35 -23 -46 -23 -25 0 -79 27 -79 40 0 6 -16 10 -35 10 -40 0 -41 -2 -19
-39 21 -36 58 -51 127 -51 63 0 93 11 119 44 23 28 23 88 1 108 -23 20 -89 48
-115 48 -55 0 -91 67 -47 90 23 13 76 4 97 -16 21 -21 62 -18 62 4 0 54 -114
89 -186 58z"/>
<path d="M1347 1014 c-4 -4 -7 -16 -7 -26 0 -14 8 -18 39 -18 73 0 71 3 71
-151 l0 -139 30 0 c34 0 33 -5 30 167 -2 107 7 123 66 123 41 0 45 2 42 23 -3
21 -7 22 -134 25 -71 1 -133 -1 -137 -4z"/>
<path d="M1969 973 c-12 -27 -25 -55 -29 -63 -4 -9 -11 -30 -14 -48 -4 -17
-12 -34 -17 -37 -5 -4 -9 -16 -9 -29 0 -12 -4 -26 -9 -31 -5 -6 -14 -27 -19
-47 -10 -37 -10 -38 17 -38 22 0 32 8 47 35 l19 35 72 0 73 0 17 -35 c13 -27
23 -35 44 -35 34 0 32 15 -15 123 -9 21 -16 46 -16 57 0 10 -4 21 -9 25 -5 3
-13 20 -17 37 -3 18 -10 39 -15 48 -4 8 -10 23 -13 33 -4 12 -16 17 -46 17
-38 0 -41 -2 -61 -47z"/>
<path d="M2460 850 l0 -171 118 3 c109 3 117 4 117 23 0 18 -8 21 -80 25 l-80
5 -5 140 -5 140 -32 3 -33 3 0 -171z"/>
<path d="M2985 1008 c-3 -8 -4 -83 -3 -168 l3 -155 118 -3 c118 -3 118 -3 115
20 -3 21 -9 23 -80 28 -42 3 -80 9 -85 13 -4 5 -10 68 -13 140 -5 128 -6 132
-28 135 -12 2 -24 -3 -27 -10z"/>
<path d="M3496 1004 c-3 -8 -6 -85 -6 -170 l0 -154 119 0 c92 0 120 3 124 14
10 25 -16 36 -90 36 -69 0 -74 2 -85 25 -8 19 -8 31 0 50 11 23 16 25 87 25
73 0 75 1 75 25 0 23 -3 24 -76 27 -85 3 -102 15 -90 61 6 25 9 26 89 29 74 3
82 5 82 23 0 19 -8 20 -111 23 -95 2 -113 0 -118 -14z"/>
<path d="M4028 999 c-3 -13 -4 -80 -3 -149 3 -184 1 -172 33 -168 25 3 27 6
32 63 5 59 6 60 37 63 28 3 35 -2 57 -37 15 -22 26 -44 26 -49 0 -17 37 -42
63 -42 25 0 26 1 15 28 -7 15 -23 44 -37 65 l-24 38 29 30 c38 40 42 116 6
151 -19 20 -34 23 -126 26 -102 4 -103 4 -108 -19z"/>
<path d="M4908 1014 c-5 -4 -8 -81 -8 -171 l0 -163 93 0 c159 0 191 30 192
177 0 91 -1 93 -32 125 -32 32 -35 33 -135 36 -57 2 -106 1 -110 -4z m192 -64
c17 -17 20 -33 20 -97 0 -43 -4 -83 -8 -89 -23 -34 -124 -48 -136 -18 -8 21
-8 209 1 217 3 4 28 7 55 7 35 0 54 -6 68 -20z"/>
<path d="M5487 1013 c-4 -3 -7 -80 -7 -170 l0 -163 121 0 c119 0 120 0 117 23
-3 20 -9 22 -86 25 -79 3 -83 4 -93 30 -7 18 -7 34 0 49 9 21 18 23 78 23 74
0 99 10 90 34 -5 11 -24 16 -83 18 -76 3 -78 3 -85 32 -13 47 3 56 91 56 62 0
79 3 84 16 3 9 4 20 0 25 -6 10 -217 13 -227 2z"/>
<path d="M6420 1002 c0 -10 -7 -27 -15 -38 -8 -10 -15 -29 -15 -41 0 -12 -4
-24 -9 -28 -5 -3 -13 -20 -17 -37 -3 -18 -10 -39 -14 -48 -47 -96 -51 -130
-15 -130 19 0 29 9 42 35 l17 35 72 0 c72 0 73 0 94 -35 15 -24 29 -35 46 -35
21 0 23 3 17 33 -3 17 -12 41 -20 52 -7 11 -13 29 -13 42 0 12 -4 24 -9 28 -5
3 -13 20 -17 37 -3 18 -10 39 -14 48 -4 8 -16 34 -25 58 -17 40 -20 42 -62 42
-35 0 -43 -3 -43 -18z"/>
<path d="M6913 1014 c-10 -4 -13 -48 -13 -170 l0 -165 33 3 c32 3 32 4 37 63
l5 60 36 3 c39 3 35 9 94 -108 7 -14 20 -20 42 -20 18 0 33 3 33 6 0 4 -13 29
-30 56 -33 53 -38 86 -16 94 23 9 48 72 41 103 -3 16 -17 39 -31 52 -22 21
-36 24 -122 26 -53 1 -103 0 -109 -3z"/>
<path d="M7450 995 c0 -22 4 -25 34 -25 67 0 66 2 66 -151 l0 -139 30 0 30 0
0 140 c0 156 -5 145 75 152 22 2 30 8 30 23 0 19 -8 20 -132 23 l-133 3 0 -26z"/>
<path d="M7997 1013 c-4 -3 -7 -80 -7 -170 l0 -163 125 0 c116 0 125 1 125 19
0 25 -19 31 -100 31 -60 0 -71 3 -80 21 -6 11 -8 33 -5 50 6 29 8 29 73 29 73
0 98 10 89 34 -5 11 -25 16 -84 18 -84 3 -92 10 -79 64 6 23 10 24 90 24 67 0
85 3 90 16 3 9 4 20 0 25 -6 10 -227 13 -237 2z"/>
<path d="M9166 1005 c-9 -9 -16 -25 -16 -35 0 -10 -4 -22 -10 -25 -5 -3 -10
-14 -10 -23 0 -9 -7 -30 -15 -46 -8 -15 -15 -36 -15 -45 0 -10 -3 -21 -7 -25
-10 -9 -43 -98 -43 -113 0 -8 12 -13 28 -13 21 0 30 8 42 33 15 31 17 32 84
35 73 3 106 -12 106 -50 0 -14 8 -18 34 -18 l34 0 -14 43 c-8 23 -18 51 -23
62 -13 30 -37 92 -63 165 -23 62 -25 65 -60 68 -23 2 -41 -3 -52 -13z"/>
<path d="M9657 1013 c-4 -3 -7 -80 -7 -170 l0 -163 25 0 c25 0 25 1 25 88 0
87 9 120 28 108 13 -8 92 -125 92 -137 0 -5 4 -9 8 -9 5 0 15 -11 22 -25 10
-19 21 -25 39 -23 l26 3 0 165 c0 153 -1 165 -19 168 -28 6 -36 -15 -36 -106
0 -73 -2 -83 -17 -80 -9 2 -41 39 -70 83 -28 44 -57 86 -63 93 -12 13 -42 16
-53 5z"/>
<path d="M10220 850 l0 -170 30 0 30 0 0 170 0 170 -30 0 -30 0 0 -170z"/>
<path d="M10683 1013 c-7 -2 -13 -12 -13 -21 0 -9 -7 -30 -15 -46 -8 -15 -15
-37 -15 -47 0 -10 -4 -20 -9 -24 -5 -3 -19 -37 -31 -75 -12 -38 -26 -72 -31
-75 -5 -4 -9 -15 -9 -26 0 -17 6 -20 33 -17 24 2 33 8 35 25 5 36 26 44 98 41
65 -3 70 -5 89 -35 14 -23 28 -32 48 -33 15 0 27 1 27 3 0 1 -9 27 -21 57 -12
30 -23 66 -26 80 -3 14 -9 30 -13 35 -4 6 -17 39 -30 75 -12 36 -26 71 -32 78
-10 12 -61 15 -85 5z"/>
</g>
</svg>
